<svg viewBox="0 0 320 180" width="320" height="180" fill="none" xmlns="http://www.w3.org/2000/svg">
  <!-- House -->
  <rect x="30" y="80" width="80" height="60" rx="14" fill="url(#houseGradient)" filter="url(#shadow)"/>
  <polygon points="30,80 70,40 110,80" fill="#88e5d8" />
  <rect x="60" y="120" width="20" height="20" rx="4" fill="#ffd580" />
  <!-- Car -->
  <rect x="170" y="120" width="80" height="30" rx="14" fill="url(#carGradient)" filter="url(#shadow)"/>
  <rect x="185" y="110" width="50" height="20" rx="6" fill="#BFDBFE" />
  <circle cx="190" cy="150" r="12" fill="#fff" stroke="#6e40c9" stroke-width="3"/>
  <circle cx="240" cy="150" r="12" fill="#fff" stroke="#6e40c9" stroke-width="3"/>
  <!-- Trees -->
  <ellipse cx="20" cy="120" rx="12" ry="24" fill="#34d399" />
  <ellipse cx="300" cy="120" rx="12" ry="24" fill="#34d399" />
  <rect x="15" y="140" width="10" height="20" fill="#a3e635" />
  <rect x="295" y="140" width="10" height="20" fill="#a3e635" />
  <!-- Crypto coins -->
  <circle cx="160" cy="60" r="14" fill="url(#coinGradient)" opacity=".8" />
  <circle cx="220" cy="50" r="10" fill="url(#coinGradient)" opacity=".7" />
  <path d="M160 54v12M154 60h12" stroke="#fff" stroke-width="2"/>
  <path d="M220 45v10M215 50h10" stroke="#fff" stroke-width="2"/>
  <!-- Clouds -->
  <ellipse cx="80" cy="30" rx="18" ry="8" fill="#e0e7ff" opacity=".7" />
  <ellipse cx="240" cy="30" rx="22" ry="10" fill="#e0e7ff" opacity=".7" />
  <!-- Network lines -->
  <path d="M160 60 Q180 80 220 50" stroke="#a78bfa" stroke-width="2" opacity=".5" />
  <path d="M160 60 Q120 80 80 30" stroke="#a78bfa" stroke-width="2" opacity=".5" />
  <!-- Soft shadow under illustration -->
  <ellipse cx="160" cy="170" rx="120" ry="18" fill="#a78bfa" opacity=".18" />
  <defs>
    <linearGradient id="houseGradient" x1="30" y1="80" x2="110" y2="140" gradientUnits="userSpaceOnUse">
      <stop stop-color="#12c2e9"/>
      <stop offset="1" stop-color="#c471ed"/>
    </linearGradient>
    <linearGradient id="carGradient" x1="170" y1="120" x2="250" y2="150" gradientUnits="userSpaceOnUse">
      <stop stop-color="#f64f59"/>
      <stop offset="1" stop-color="#c471ed"/>
    </linearGradient>
    <linearGradient id="coinGradient" x1="160" y1="46" x2="160" y2="74" gradientUnits="userSpaceOnUse">
      <stop stop-color="#f9d423"/>
      <stop offset="1" stop-color="#ff4e50"/>
    </linearGradient>
    <filter id="shadow" x="-20" y="-20" width="160" height="160" filterUnits="userSpaceOnUse">
      <feDropShadow dx="0" dy="8" stdDeviation="8" flood-color="#a78bfa" flood-opacity="0.25"/>
    </filter>
  </defs>
</svg>
